<?xml version="1.0" standalone="no"?>
<!DOCTYPE svg PUBLIC "-//W3C//DTD SVG 20010904//EN"
 "http://www.w3.org/TR/2001/REC-SVG-20010904/DTD/svg10.dtd">
<svg version="1.0" xmlns="http://www.w3.org/2000/svg"
 width="450.000000pt" height="173.000000pt" viewBox="0 0 450.000000 173.000000"
 preserveAspectRatio="xMidYMid meet">
<metadata>
Created by potrace 1.10, written by Peter Selinger 2001-2011
</metadata>
<g transform="translate(0.000000,173.000000) scale(0.050000,-0.050000)"
fill="#000000" stroke="none">
<path d="M93 3307 c-7 -8 -13 -741 -13 -1630 l0 -1617 4400 0 4400 0 0 1630 0
1630 -4387 0 c-2412 0 -4392 -6 -4400 -13z m2062 -582 c-4 -107 -7 -19 -7 195
0 215 3 302 7 195 4 -107 4 -283 0 -390z m1360 0 c-4 -107 -7 -19 -7 195 0
215 3 302 7 195 4 -107 4 -283 0 -390z m920 -170 l315 -6 -325 -5 -325 -4 5
385 4 385 6 -374 6 -375 314 -6z m1609 375 l-6 -370 311 0 311 0 0 370 c0 204
7 370 15 370 8 0 12 -166 9 -370 l-6 -370 311 0 311 0 0 370 c0 204 7 370 15
370 8 0 12 -166 9 -370 l-6 -370 311 0 311 0 5 375 4 375 6 -374 6 -374 104
-7 c58 -4 -520 -7 -1285 -7 -764 1 -1248 4 -1075 7 l315 6 0 370 c0 203 7 369
15 369 8 0 12 -166 9 -370z m-5284 -20 l0 -350 -310 0 -310 0 0 350 0 350 310
0 310 0 0 -350z m680 0 l0 -350 -310 0 -310 0 0 350 0 350 310 0 310 0 0 -350z
m680 0 l0 -350 -310 0 -310 0 0 350 0 350 310 0 310 0 0 -350z m680 0 l0 -350
-310 0 -310 0 0 350 0 350 310 0 310 0 0 -350z m680 0 l0 -350 -310 0 -310 0
0 350 0 350 310 0 310 0 0 -350z m600 -20 l0 -371 345 6 345 5 5 365 6 365
289 0 289 0 6 -365 5 -365 1385 -5 1385 -5 0 -830 0 -830 -4000 0 -4000 0 0
820 0 820 1695 5 1695 5 5 375 6 375 269 0 270 0 0 -370z m640 30 l0 -340
-290 0 -290 0 0 340 0 340 290 0 290 0 0 -340z m1280 0 l0 -340 -290 0 -290 0
0 340 0 340 290 0 290 0 0 -340z m640 0 l0 -340 -290 0 -290 0 0 340 0 340
290 0 290 0 0 -340z m640 0 l0 -340 -290 0 -290 0 0 340 0 340 290 0 290 0 0
-340z m640 0 l0 -340 -290 0 -290 0 0 340 0 340 290 0 290 0 0 -340z m900
-1240 l0 -1580 -420 0 -420 0 0 350 0 350 110 0 110 0 0 890 0 890 -110 0
-110 0 0 340 0 340 420 0 420 0 0 -1580z m-6665 -1414 c-4 -108 -7 -25 -7 184
0 209 3 297 7 196 4 -101 4 -272 0 -380z m1360 0 c-4 -108 -7 -25 -7 184 0
209 3 297 7 196 4 -101 4 -272 0 -380z m2520 0 c-4 -108 -7 -25 -7 184 0 209
3 297 7 196 4 -101 4 -272 0 -380z m640 0 c-4 -108 -7 -25 -7 184 0 209 3 297
7 196 4 -101 4 -272 0 -380z m640 0 c-4 -108 -7 -25 -7 184 0 209 3 297 7 196
4 -101 4 -272 0 -380z m640 0 c-4 -108 -7 -25 -7 184 0 209 3 297 7 196 4
-101 4 -272 0 -380z m-7195 184 l0 -350 -310 0 -310 0 0 350 0 350 310 0 310
0 0 -350z m680 0 l0 -350 -310 0 -310 0 0 350 0 350 310 0 310 0 0 -350z m680
0 l0 -350 -310 0 -310 0 0 350 0 350 310 0 310 0 0 -350z m680 0 l0 -350 -310
0 -310 0 0 350 0 350 310 0 310 0 0 -350z m680 0 l0 -350 -310 0 -310 0 0 350
0 350 310 0 310 0 0 -350z m1880 0 l0 -350 -910 0 -910 0 0 350 0 350 910 0
910 0 0 -350z m640 0 l0 -350 -290 0 -290 0 0 350 0 350 290 0 290 0 0 -350z
m640 0 l0 -350 -290 0 -290 0 0 350 0 350 290 0 290 0 0 -350z m640 0 l0 -350
-290 0 -290 0 0 350 0 350 290 0 290 0 0 -350z m640 0 l0 -350 -290 0 -290 0
0 350 0 350 290 0 290 0 0 -350z"/>
<path d="M880 1680 l0 -680 1280 0 1280 0 0 290 0 290 -220 0 -220 0 0 100 0
100 220 0 220 0 0 290 0 290 -1280 0 -1280 0 0 -680z m2535 256 c-4 -80 -7
-20 -7 134 0 154 3 220 7 146 4 -74 4 -200 0 -280z m-35 264 l0 -120 -270 0
-270 0 0 -410 0 -410 270 0 270 0 0 -100 0 -100 -1220 0 -1220 0 0 630 0 630
1220 0 1220 0 0 -120z m0 -280 l0 -100 -220 0 -220 0 0 -150 0 -150 220 0 220
0 0 -100 0 -100 -240 0 -240 0 0 350 0 350 240 0 240 0 0 -100z m-179 -360
l219 0 0 -270 c0 -148 -7 -270 -15 -270 -8 0 -12 117 -9 260 l6 260 -221 0
-221 0 4 135 4 135 7 -125 7 -125 219 0z"/>
<path d="M3700 1670 l0 -690 740 0 740 0 0 690 0 690 -740 0 -740 0 0 -690z
m35 -334 c-3 -190 -6 -40 -6 334 0 374 3 530 6 346 3 -183 3 -489 0 -680z
m1385 334 l0 -650 -680 0 -680 0 0 650 0 650 680 0 680 0 0 -650z"/>
<path d="M5320 1670 l0 -690 1330 0 1330 0 0 690 0 690 -1330 0 -1330 0 0
-690z m2635 -334 c-3 -190 -6 -40 -6 334 0 374 3 530 6 346 3 -183 3 -489 0
-680z m-35 334 l0 -650 -1280 0 -1280 0 0 650 0 650 1280 0 1280 0 0 -650z"/>
</g>
</svg>
